%TF.GenerationSoftware,KiCad,Pcbnew,9.0.0*%
%TF.CreationDate,2025-03-14T15:45:12-07:00*%
%TF.ProjectId,TouchDRO,546f7563-6844-4524-9f2e-6b696361645f,0.2*%
%TF.SameCoordinates,Original*%
%TF.FileFunction,Soldermask,Bot*%
%TF.FilePolarity,Negative*%
%FSLAX46Y46*%
G04 Gerber Fmt 4.6, Leading zero omitted, Abs format (unit mm)*
G04 Created by KiCad (PCBNEW 9.0.0) date 2025-03-14 15:45:12*
%MOMM*%
%LPD*%
G01*
G04 APERTURE LIST*
%ADD10C,2.700000*%
%ADD11R,1.700000X1.700000*%
%ADD12O,1.700000X1.700000*%
%ADD13R,1.560000X1.560000*%
%ADD14C,1.560000*%
G04 APERTURE END LIST*
D10*
%TO.C,REF\u002A\u002A*%
X48895000Y-90043000D03*
%TD*%
D11*
%TO.C,J4*%
X99060000Y-54610000D03*
D12*
X96520000Y-54610000D03*
X99060000Y-52070000D03*
X96520000Y-52070000D03*
X99060000Y-49530000D03*
X96520000Y-49530000D03*
X99060000Y-46990000D03*
X96520000Y-46990000D03*
%TD*%
D13*
%TO.C,ESP32*%
X60960000Y-45720000D03*
D14*
X60960000Y-48260000D03*
X60960000Y-50800000D03*
X60960000Y-53340000D03*
X60960000Y-55880000D03*
X60960000Y-58420000D03*
X60960000Y-60960000D03*
X60960000Y-63500000D03*
X60960000Y-66040000D03*
X60960000Y-68580000D03*
X60960000Y-71120000D03*
X60960000Y-73660000D03*
X60960000Y-76200000D03*
X60960000Y-78740000D03*
X60960000Y-81280000D03*
X60960000Y-83820000D03*
X60960000Y-86360000D03*
X60960000Y-88900000D03*
X60960000Y-91440000D03*
X86360000Y-45720000D03*
X86360000Y-48260000D03*
X86360000Y-50800000D03*
X86360000Y-53340000D03*
X86360000Y-55880000D03*
X86360000Y-58420000D03*
X86360000Y-60960000D03*
X86360000Y-63500000D03*
X86360000Y-66040000D03*
X86360000Y-68580000D03*
X86360000Y-71120000D03*
X86360000Y-73660000D03*
X86360000Y-76200000D03*
X86360000Y-78740000D03*
X86360000Y-81280000D03*
X86360000Y-83820000D03*
X86360000Y-86360000D03*
X86360000Y-88900000D03*
X86360000Y-91440000D03*
%TD*%
D11*
%TO.C,J1*%
X48260000Y-46990000D03*
D12*
X50800000Y-46990000D03*
X48260000Y-49530000D03*
X50800000Y-49530000D03*
X48260000Y-52070000D03*
X50800000Y-52070000D03*
X48260000Y-54610000D03*
X50800000Y-54610000D03*
%TD*%
D11*
%TO.C,J2*%
X48255000Y-76210000D03*
D12*
X50795000Y-76210000D03*
X48255000Y-78750000D03*
X50795000Y-78750000D03*
X48255000Y-81290000D03*
X50795000Y-81290000D03*
X48255000Y-83830000D03*
X50795000Y-83830000D03*
%TD*%
D10*
%TO.C,REF\u002A\u002A*%
X98425000Y-90043000D03*
%TD*%
D11*
%TO.C,J5*%
X57409000Y-91135200D03*
D12*
X54869000Y-91135200D03*
%TD*%
D11*
%TO.C,J3*%
X99060000Y-83820000D03*
D12*
X96520000Y-83820000D03*
X99060000Y-81280000D03*
X96520000Y-81280000D03*
X99060000Y-78740000D03*
X96520000Y-78740000D03*
X99060000Y-76200000D03*
X96520000Y-76200000D03*
%TD*%
D10*
%TO.C,REF\u002A\u002A*%
X48768000Y-41021000D03*
%TD*%
%TO.C,REF\u002A\u002A*%
X98552000Y-41021000D03*
%TD*%
M02*
