M48
; DRILL file {KiCad 9.0.0} date 2025-03-14T15:45:09-0700
; FORMAT={-:-/ absolute / inch / decimal}
; #@! TF.CreationDate,2025-03-14T15:45:09-07:00
; #@! TF.GenerationSoftware,Kicad,Pcbnew,9.0.0
; #@! TF.FileFunction,Plated,1,2,PTH
FMAT,2
INCH
; #@! TA.AperFunction,Plated,PTH,ViaDrill
T1C0.0157
; #@! TA.AperFunction,Plated,PTH,ComponentDrill
T2C0.0394
; #@! TA.AperFunction,Plated,PTH,ComponentDrill
T3C0.0409
%
G90
G05
T1
X1.845Y-1.755
X1.87Y-2.23
X1.87Y-2.28
X1.88Y-3.375
X1.9Y-2.905
X1.92Y-1.755
X1.95Y-3.375
X1.986Y-2.332
X2.01Y-2.905
X2.024Y-2.512
X2.025Y-2.47
X2.025Y-2.6
X2.03Y-2.705
X2.05Y-3.375
X2.065Y-3.625
X2.075Y-2.675
X2.092Y-2.528
X2.105Y-3.3
X2.15Y-2.85
X2.15Y-3.0
X2.175Y-2.28
X2.205Y-2.185
X2.255Y-2.185
X2.3Y-2.055
X2.3Y-2.31
X2.3Y-2.415
X2.3Y-2.55
X2.3Y-2.65
X2.3Y-2.75
X2.3Y-2.855
X2.3Y-3.02
X2.305Y-3.17
X2.305Y-3.42
X2.31Y-1.535
X2.31Y-1.605
X2.46Y-3.055
X2.46Y-3.15
X2.475Y-3.62
X2.48Y-1.8
X2.48Y-2.3
X2.48Y-2.415
X3.32Y-1.8
X3.32Y-2.3
X3.32Y-2.41
X3.325Y-3.54
X3.325Y-3.62
X3.34Y-2.94
X3.34Y-3.045
X3.46Y-2.85
X3.484Y-2.414
X3.485Y-2.035
X3.485Y-2.195
X3.485Y-2.515
X3.485Y-2.605
X3.485Y-2.75
X3.485Y-2.955
X3.485Y-3.125
X3.485Y-3.62
X3.49Y-1.535
X3.49Y-1.61
X3.49Y-1.73
X3.608Y-2.962
X3.61Y-2.055
X3.635Y-1.73
X3.635Y-2.205
X3.64Y-2.806
X3.685Y-3.24
X3.685Y-3.355
X3.7086Y-2.6234
X3.7102Y-2.5751
X3.7126Y-2.5284
X3.73Y-2.885
X3.77Y-2.52
X3.773Y-2.571
X3.81Y-1.73
X3.88Y-2.905
X3.895Y-2.805
X3.9Y-2.255
X3.93Y-2.905
X3.96Y-1.755
X3.96Y-3.4
T2
X1.8998Y-3.0004
X1.8998Y-3.1004
X1.8998Y-3.2004
X1.8998Y-3.3004
X1.9Y-1.85
X1.9Y-1.95
X1.9Y-2.05
X1.9Y-2.15
X1.9998Y-3.0004
X1.9998Y-3.1004
X1.9998Y-3.2004
X1.9998Y-3.3004
X2.0Y-1.85
X2.0Y-1.95
X2.0Y-2.05
X2.0Y-2.15
X2.1602Y-3.588
X2.2602Y-3.588
X3.8Y-1.85
X3.8Y-1.95
X3.8Y-2.05
X3.8Y-2.15
X3.8Y-3.0
X3.8Y-3.1
X3.8Y-3.2
X3.8Y-3.3
X3.9Y-1.85
X3.9Y-1.95
X3.9Y-2.05
X3.9Y-2.15
X3.9Y-3.0
X3.9Y-3.1
X3.9Y-3.2
X3.9Y-3.3
T3
X2.4Y-1.8
X2.4Y-1.9
X2.4Y-2.0
X2.4Y-2.1
X2.4Y-2.2
X2.4Y-2.3
X2.4Y-2.4
X2.4Y-2.5
X2.4Y-2.6
X2.4Y-2.7
X2.4Y-2.8
X2.4Y-2.9
X2.4Y-3.0
X2.4Y-3.1
X2.4Y-3.2
X2.4Y-3.3
X2.4Y-3.4
X2.4Y-3.5
X2.4Y-3.6
X3.4Y-1.8
X3.4Y-1.9
X3.4Y-2.0
X3.4Y-2.1
X3.4Y-2.2
X3.4Y-2.3
X3.4Y-2.4
X3.4Y-2.5
X3.4Y-2.6
X3.4Y-2.7
X3.4Y-2.8
X3.4Y-2.9
X3.4Y-3.0
X3.4Y-3.1
X3.4Y-3.2
X3.4Y-3.3
X3.4Y-3.4
X3.4Y-3.5
X3.4Y-3.6
M30
