%TF.GenerationSoftware,KiCad,Pcbnew,9.0.0*%
%TF.CreationDate,2025-03-14T15:45:12-07:00*%
%TF.ProjectId,TouchDRO,546f7563-6844-4524-9f2e-6b696361645f,0.2*%
%TF.SameCoordinates,Original*%
%TF.FileFunction,Legend,Top*%
%TF.FilePolarity,Positive*%
%FSLAX46Y46*%
G04 Gerber Fmt 4.6, Leading zero omitted, Abs format (unit mm)*
G04 Created by KiCad (PCBNEW 9.0.0) date 2025-03-14 15:45:12*
%MOMM*%
%LPD*%
G01*
G04 APERTURE LIST*
%ADD10C,0.150000*%
%ADD11C,0.125000*%
%ADD12C,0.120000*%
%ADD13C,0.127000*%
%ADD14C,0.200000*%
G04 APERTURE END LIST*
D10*
G36*
X58932489Y-89211621D02*
G01*
X57801244Y-89211621D01*
X57801244Y-88631367D01*
X57912355Y-88631367D01*
X57912355Y-88660631D01*
X57923554Y-88687667D01*
X57944246Y-88708359D01*
X57971282Y-88719558D01*
X57985914Y-88720999D01*
X58291866Y-88720999D01*
X58291866Y-89026951D01*
X58293307Y-89041583D01*
X58304506Y-89068619D01*
X58325198Y-89089311D01*
X58352234Y-89100510D01*
X58381498Y-89100510D01*
X58408534Y-89089311D01*
X58429226Y-89068619D01*
X58440425Y-89041583D01*
X58441866Y-89026951D01*
X58441866Y-88720999D01*
X58747819Y-88720999D01*
X58762451Y-88719558D01*
X58789487Y-88708359D01*
X58810179Y-88687667D01*
X58821378Y-88660631D01*
X58821378Y-88631367D01*
X58810179Y-88604331D01*
X58789487Y-88583639D01*
X58762451Y-88572440D01*
X58747819Y-88570999D01*
X58441866Y-88570999D01*
X58441866Y-88265047D01*
X58440425Y-88250415D01*
X58429226Y-88223379D01*
X58408534Y-88202687D01*
X58381498Y-88191488D01*
X58352234Y-88191488D01*
X58325198Y-88202687D01*
X58304506Y-88223379D01*
X58293307Y-88250415D01*
X58291866Y-88265047D01*
X58291866Y-88570999D01*
X57985914Y-88570999D01*
X57971282Y-88572440D01*
X57944246Y-88583639D01*
X57923554Y-88604331D01*
X57912355Y-88631367D01*
X57801244Y-88631367D01*
X57801244Y-88080377D01*
X58932489Y-88080377D01*
X58932489Y-89211621D01*
G37*
D11*
X90384571Y-92327119D02*
X90051238Y-91850928D01*
X89813143Y-92327119D02*
X89813143Y-91327119D01*
X89813143Y-91327119D02*
X90194095Y-91327119D01*
X90194095Y-91327119D02*
X90289333Y-91374738D01*
X90289333Y-91374738D02*
X90336952Y-91422357D01*
X90336952Y-91422357D02*
X90384571Y-91517595D01*
X90384571Y-91517595D02*
X90384571Y-91660452D01*
X90384571Y-91660452D02*
X90336952Y-91755690D01*
X90336952Y-91755690D02*
X90289333Y-91803309D01*
X90289333Y-91803309D02*
X90194095Y-91850928D01*
X90194095Y-91850928D02*
X89813143Y-91850928D01*
X91194095Y-92279500D02*
X91098857Y-92327119D01*
X91098857Y-92327119D02*
X90908381Y-92327119D01*
X90908381Y-92327119D02*
X90813143Y-92279500D01*
X90813143Y-92279500D02*
X90765524Y-92184261D01*
X90765524Y-92184261D02*
X90765524Y-91803309D01*
X90765524Y-91803309D02*
X90813143Y-91708071D01*
X90813143Y-91708071D02*
X90908381Y-91660452D01*
X90908381Y-91660452D02*
X91098857Y-91660452D01*
X91098857Y-91660452D02*
X91194095Y-91708071D01*
X91194095Y-91708071D02*
X91241714Y-91803309D01*
X91241714Y-91803309D02*
X91241714Y-91898547D01*
X91241714Y-91898547D02*
X90765524Y-91993785D01*
X91575048Y-91660452D02*
X91813143Y-92327119D01*
X91813143Y-92327119D02*
X92051238Y-91660452D01*
X93384572Y-91327119D02*
X93479810Y-91327119D01*
X93479810Y-91327119D02*
X93575048Y-91374738D01*
X93575048Y-91374738D02*
X93622667Y-91422357D01*
X93622667Y-91422357D02*
X93670286Y-91517595D01*
X93670286Y-91517595D02*
X93717905Y-91708071D01*
X93717905Y-91708071D02*
X93717905Y-91946166D01*
X93717905Y-91946166D02*
X93670286Y-92136642D01*
X93670286Y-92136642D02*
X93622667Y-92231880D01*
X93622667Y-92231880D02*
X93575048Y-92279500D01*
X93575048Y-92279500D02*
X93479810Y-92327119D01*
X93479810Y-92327119D02*
X93384572Y-92327119D01*
X93384572Y-92327119D02*
X93289334Y-92279500D01*
X93289334Y-92279500D02*
X93241715Y-92231880D01*
X93241715Y-92231880D02*
X93194096Y-92136642D01*
X93194096Y-92136642D02*
X93146477Y-91946166D01*
X93146477Y-91946166D02*
X93146477Y-91708071D01*
X93146477Y-91708071D02*
X93194096Y-91517595D01*
X93194096Y-91517595D02*
X93241715Y-91422357D01*
X93241715Y-91422357D02*
X93289334Y-91374738D01*
X93289334Y-91374738D02*
X93384572Y-91327119D01*
X94146477Y-92231880D02*
X94194096Y-92279500D01*
X94194096Y-92279500D02*
X94146477Y-92327119D01*
X94146477Y-92327119D02*
X94098858Y-92279500D01*
X94098858Y-92279500D02*
X94146477Y-92231880D01*
X94146477Y-92231880D02*
X94146477Y-92327119D01*
X94575048Y-91422357D02*
X94622667Y-91374738D01*
X94622667Y-91374738D02*
X94717905Y-91327119D01*
X94717905Y-91327119D02*
X94956000Y-91327119D01*
X94956000Y-91327119D02*
X95051238Y-91374738D01*
X95051238Y-91374738D02*
X95098857Y-91422357D01*
X95098857Y-91422357D02*
X95146476Y-91517595D01*
X95146476Y-91517595D02*
X95146476Y-91612833D01*
X95146476Y-91612833D02*
X95098857Y-91755690D01*
X95098857Y-91755690D02*
X94527429Y-92327119D01*
X94527429Y-92327119D02*
X95146476Y-92327119D01*
D10*
G36*
X54159621Y-88758244D02*
G01*
X53028377Y-88758244D01*
X53028377Y-88557501D01*
X53139488Y-88557501D01*
X53139488Y-88586765D01*
X53150687Y-88613801D01*
X53171379Y-88634493D01*
X53198415Y-88645692D01*
X53213047Y-88647133D01*
X53974951Y-88647133D01*
X53989583Y-88645692D01*
X54016619Y-88634493D01*
X54037311Y-88613801D01*
X54048510Y-88586765D01*
X54048510Y-88557501D01*
X54037311Y-88530465D01*
X54016619Y-88509773D01*
X53989583Y-88498574D01*
X53974951Y-88497133D01*
X53213047Y-88497133D01*
X53198415Y-88498574D01*
X53171379Y-88509773D01*
X53150687Y-88530465D01*
X53139488Y-88557501D01*
X53028377Y-88557501D01*
X53028377Y-88386022D01*
X54159621Y-88386022D01*
X54159621Y-88758244D01*
G37*
X92260380Y-73115466D02*
X92308000Y-73163085D01*
X92308000Y-73163085D02*
X92355619Y-73305942D01*
X92355619Y-73305942D02*
X92355619Y-73401180D01*
X92355619Y-73401180D02*
X92308000Y-73544037D01*
X92308000Y-73544037D02*
X92212761Y-73639275D01*
X92212761Y-73639275D02*
X92117523Y-73686894D01*
X92117523Y-73686894D02*
X91927047Y-73734513D01*
X91927047Y-73734513D02*
X91784190Y-73734513D01*
X91784190Y-73734513D02*
X91593714Y-73686894D01*
X91593714Y-73686894D02*
X91498476Y-73639275D01*
X91498476Y-73639275D02*
X91403238Y-73544037D01*
X91403238Y-73544037D02*
X91355619Y-73401180D01*
X91355619Y-73401180D02*
X91355619Y-73305942D01*
X91355619Y-73305942D02*
X91403238Y-73163085D01*
X91403238Y-73163085D02*
X91450857Y-73115466D01*
X92355619Y-72163085D02*
X92355619Y-72734513D01*
X92355619Y-72448799D02*
X91355619Y-72448799D01*
X91355619Y-72448799D02*
X91498476Y-72544037D01*
X91498476Y-72544037D02*
X91593714Y-72639275D01*
X91593714Y-72639275D02*
X91641333Y-72734513D01*
X53896419Y-44680094D02*
X52896419Y-44680094D01*
X52896419Y-44680094D02*
X52896419Y-44441999D01*
X52896419Y-44441999D02*
X52944038Y-44299142D01*
X52944038Y-44299142D02*
X53039276Y-44203904D01*
X53039276Y-44203904D02*
X53134514Y-44156285D01*
X53134514Y-44156285D02*
X53324990Y-44108666D01*
X53324990Y-44108666D02*
X53467847Y-44108666D01*
X53467847Y-44108666D02*
X53658323Y-44156285D01*
X53658323Y-44156285D02*
X53753561Y-44203904D01*
X53753561Y-44203904D02*
X53848800Y-44299142D01*
X53848800Y-44299142D02*
X53896419Y-44441999D01*
X53896419Y-44441999D02*
X53896419Y-44680094D01*
X52896419Y-43775332D02*
X52896419Y-43156285D01*
X52896419Y-43156285D02*
X53277371Y-43489618D01*
X53277371Y-43489618D02*
X53277371Y-43346761D01*
X53277371Y-43346761D02*
X53324990Y-43251523D01*
X53324990Y-43251523D02*
X53372609Y-43203904D01*
X53372609Y-43203904D02*
X53467847Y-43156285D01*
X53467847Y-43156285D02*
X53705942Y-43156285D01*
X53705942Y-43156285D02*
X53801180Y-43203904D01*
X53801180Y-43203904D02*
X53848800Y-43251523D01*
X53848800Y-43251523D02*
X53896419Y-43346761D01*
X53896419Y-43346761D02*
X53896419Y-43632475D01*
X53896419Y-43632475D02*
X53848800Y-43727713D01*
X53848800Y-43727713D02*
X53801180Y-43775332D01*
G36*
X56867287Y-41474077D02*
G01*
X56897694Y-41504484D01*
X56931952Y-41573000D01*
X56931952Y-41680447D01*
X56897694Y-41748963D01*
X56867287Y-41779370D01*
X56798771Y-41813628D01*
X56510524Y-41813628D01*
X56510524Y-41439819D01*
X56798771Y-41439819D01*
X56867287Y-41474077D01*
G37*
G36*
X54724430Y-41474077D02*
G01*
X54754837Y-41504484D01*
X54789095Y-41573000D01*
X54789095Y-41680447D01*
X54754837Y-41748963D01*
X54724430Y-41779370D01*
X54655914Y-41813628D01*
X54367667Y-41813628D01*
X54367667Y-41439819D01*
X54655914Y-41439819D01*
X54724430Y-41474077D01*
G37*
G36*
X57193063Y-42550913D02*
G01*
X54106556Y-42550913D01*
X54106556Y-41364819D01*
X54217667Y-41364819D01*
X54217667Y-42364819D01*
X54219108Y-42379451D01*
X54230307Y-42406487D01*
X54250999Y-42427179D01*
X54278035Y-42438378D01*
X54307299Y-42438378D01*
X54334335Y-42427179D01*
X54355027Y-42406487D01*
X54366226Y-42379451D01*
X54367667Y-42364819D01*
X54367667Y-41963628D01*
X54673619Y-41963628D01*
X54688251Y-41962187D01*
X54690740Y-41961155D01*
X54693428Y-41960965D01*
X54707160Y-41955710D01*
X54802398Y-41908091D01*
X54808697Y-41904126D01*
X54810525Y-41903369D01*
X54812581Y-41901680D01*
X54814841Y-41900259D01*
X54816140Y-41898760D01*
X54821890Y-41894042D01*
X54869509Y-41846423D01*
X54874227Y-41840673D01*
X54875726Y-41839374D01*
X54877147Y-41837114D01*
X54878836Y-41835058D01*
X54879593Y-41833230D01*
X54883558Y-41826931D01*
X54931177Y-41731693D01*
X54936432Y-41717962D01*
X54936623Y-41715272D01*
X54937654Y-41712784D01*
X54939095Y-41698152D01*
X54939095Y-41555295D01*
X54937654Y-41540663D01*
X54936623Y-41538174D01*
X54936432Y-41535485D01*
X54931177Y-41521754D01*
X54883558Y-41426516D01*
X54879593Y-41420216D01*
X54878836Y-41418389D01*
X54877147Y-41416332D01*
X54875726Y-41414073D01*
X54874227Y-41412773D01*
X54869509Y-41407024D01*
X54830108Y-41367623D01*
X55122481Y-41367623D01*
X55124469Y-41382191D01*
X55362564Y-42382191D01*
X55364293Y-42387210D01*
X55364533Y-42389012D01*
X55365475Y-42390640D01*
X55367354Y-42396091D01*
X55373740Y-42404915D01*
X55379195Y-42414337D01*
X55382252Y-42416677D01*
X55384511Y-42419798D01*
X55393786Y-42425505D01*
X55402433Y-42432124D01*
X55406153Y-42433116D01*
X55409433Y-42435134D01*
X55420187Y-42436858D01*
X55430709Y-42439664D01*
X55434524Y-42439157D01*
X55438328Y-42439767D01*
X55448926Y-42437243D01*
X55459717Y-42435810D01*
X55463048Y-42433881D01*
X55466796Y-42432989D01*
X55475620Y-42426602D01*
X55485042Y-42421148D01*
X55487382Y-42418090D01*
X55490503Y-42415832D01*
X55496210Y-42406556D01*
X55502829Y-42397910D01*
X55504854Y-42392510D01*
X55505839Y-42390910D01*
X55506126Y-42389118D01*
X55507992Y-42384144D01*
X55625999Y-41941613D01*
X55744008Y-42384144D01*
X55745873Y-42389119D01*
X55746161Y-42390910D01*
X55747145Y-42392509D01*
X55749171Y-42397911D01*
X55755791Y-42406559D01*
X55761497Y-42415832D01*
X55764617Y-42418090D01*
X55766958Y-42421148D01*
X55776379Y-42426602D01*
X55785204Y-42432989D01*
X55788951Y-42433881D01*
X55792283Y-42435810D01*
X55803076Y-42437244D01*
X55813672Y-42439767D01*
X55817473Y-42439157D01*
X55821292Y-42439665D01*
X55831823Y-42436856D01*
X55842567Y-42435134D01*
X55845843Y-42433118D01*
X55849567Y-42432125D01*
X55858217Y-42425503D01*
X55867489Y-42419798D01*
X55869747Y-42416677D01*
X55872805Y-42414337D01*
X55878260Y-42404914D01*
X55884646Y-42396091D01*
X55886523Y-42390642D01*
X55887467Y-42389013D01*
X55887706Y-42387209D01*
X55889436Y-42382191D01*
X56127532Y-41382191D01*
X56129520Y-41367623D01*
X56129070Y-41364819D01*
X56360524Y-41364819D01*
X56360524Y-42364819D01*
X56361965Y-42379451D01*
X56373164Y-42406487D01*
X56393856Y-42427179D01*
X56420892Y-42438378D01*
X56450156Y-42438378D01*
X56477192Y-42427179D01*
X56497884Y-42406487D01*
X56509083Y-42379451D01*
X56510524Y-42364819D01*
X56510524Y-41963628D01*
X56634570Y-41963628D01*
X56945510Y-42407829D01*
X56955081Y-42418989D01*
X56979760Y-42434716D01*
X57008577Y-42439802D01*
X57037148Y-42433472D01*
X57061122Y-42416690D01*
X57076849Y-42392012D01*
X57081934Y-42363194D01*
X57075605Y-42334623D01*
X57068395Y-42321810D01*
X56817591Y-41963518D01*
X56831108Y-41962187D01*
X56833597Y-41961155D01*
X56836285Y-41960965D01*
X56850017Y-41955710D01*
X56945255Y-41908091D01*
X56951554Y-41904126D01*
X56953382Y-41903369D01*
X56955438Y-41901680D01*
X56957698Y-41900259D01*
X56958997Y-41898760D01*
X56964747Y-41894042D01*
X57012366Y-41846423D01*
X57017084Y-41840673D01*
X57018583Y-41839374D01*
X57020004Y-41837114D01*
X57021693Y-41835058D01*
X57022450Y-41833230D01*
X57026415Y-41826931D01*
X57074034Y-41731693D01*
X57079289Y-41717962D01*
X57079480Y-41715272D01*
X57080511Y-41712784D01*
X57081952Y-41698152D01*
X57081952Y-41555295D01*
X57080511Y-41540663D01*
X57079480Y-41538174D01*
X57079289Y-41535485D01*
X57074034Y-41521754D01*
X57026415Y-41426516D01*
X57022450Y-41420216D01*
X57021693Y-41418389D01*
X57020004Y-41416332D01*
X57018583Y-41414073D01*
X57017084Y-41412773D01*
X57012366Y-41407024D01*
X56964747Y-41359405D01*
X56958997Y-41354686D01*
X56957698Y-41353188D01*
X56955438Y-41351766D01*
X56953382Y-41350078D01*
X56951554Y-41349320D01*
X56945255Y-41345356D01*
X56850017Y-41297737D01*
X56836285Y-41292482D01*
X56833597Y-41292291D01*
X56831108Y-41291260D01*
X56816476Y-41289819D01*
X56435524Y-41289819D01*
X56420892Y-41291260D01*
X56393856Y-41302459D01*
X56373164Y-41323151D01*
X56361965Y-41350187D01*
X56360524Y-41364819D01*
X56129070Y-41364819D01*
X56124887Y-41338728D01*
X56109551Y-41313806D01*
X56085844Y-41296650D01*
X56057376Y-41289871D01*
X56028481Y-41294504D01*
X56003559Y-41309840D01*
X55986402Y-41333547D01*
X55981612Y-41347448D01*
X55812359Y-42058303D01*
X55698468Y-41631208D01*
X55697182Y-41627780D01*
X55696991Y-41626339D01*
X55695999Y-41624626D01*
X55693305Y-41617442D01*
X55687290Y-41609583D01*
X55682329Y-41601015D01*
X55678470Y-41598061D01*
X55675518Y-41594204D01*
X55666953Y-41589245D01*
X55659091Y-41583227D01*
X55654394Y-41581974D01*
X55650193Y-41579542D01*
X55640386Y-41578239D01*
X55630816Y-41575687D01*
X55625997Y-41576327D01*
X55621185Y-41575688D01*
X55611624Y-41578237D01*
X55601807Y-41579542D01*
X55597601Y-41581976D01*
X55592909Y-41583228D01*
X55585049Y-41589243D01*
X55576482Y-41594204D01*
X55573528Y-41598062D01*
X55569671Y-41601015D01*
X55564712Y-41609580D01*
X55558695Y-41617441D01*
X55555998Y-41624630D01*
X55555009Y-41626340D01*
X55554817Y-41627779D01*
X55553532Y-41631208D01*
X55439640Y-42058303D01*
X55270389Y-41347447D01*
X55265599Y-41333547D01*
X55248442Y-41309840D01*
X55223520Y-41294504D01*
X55194625Y-41289871D01*
X55166157Y-41296649D01*
X55142450Y-41313806D01*
X55127114Y-41338728D01*
X55122481Y-41367623D01*
X54830108Y-41367623D01*
X54821890Y-41359405D01*
X54816140Y-41354686D01*
X54814841Y-41353188D01*
X54812581Y-41351766D01*
X54810525Y-41350078D01*
X54808697Y-41349320D01*
X54802398Y-41345356D01*
X54707160Y-41297737D01*
X54693428Y-41292482D01*
X54690740Y-41292291D01*
X54688251Y-41291260D01*
X54673619Y-41289819D01*
X54292667Y-41289819D01*
X54278035Y-41291260D01*
X54250999Y-41302459D01*
X54230307Y-41323151D01*
X54219108Y-41350187D01*
X54217667Y-41364819D01*
X54106556Y-41364819D01*
X54106556Y-41178708D01*
X57193063Y-41178708D01*
X57193063Y-42550913D01*
G37*
X54150419Y-83135694D02*
X53150419Y-83135694D01*
X53150419Y-83135694D02*
X53150419Y-82897599D01*
X53150419Y-82897599D02*
X53198038Y-82754742D01*
X53198038Y-82754742D02*
X53293276Y-82659504D01*
X53293276Y-82659504D02*
X53388514Y-82611885D01*
X53388514Y-82611885D02*
X53578990Y-82564266D01*
X53578990Y-82564266D02*
X53721847Y-82564266D01*
X53721847Y-82564266D02*
X53912323Y-82611885D01*
X53912323Y-82611885D02*
X54007561Y-82659504D01*
X54007561Y-82659504D02*
X54102800Y-82754742D01*
X54102800Y-82754742D02*
X54150419Y-82897599D01*
X54150419Y-82897599D02*
X54150419Y-83135694D01*
X54150419Y-81611885D02*
X54150419Y-82183313D01*
X54150419Y-81897599D02*
X53150419Y-81897599D01*
X53150419Y-81897599D02*
X53293276Y-81992837D01*
X53293276Y-81992837D02*
X53388514Y-82088075D01*
X53388514Y-82088075D02*
X53436133Y-82183313D01*
G36*
X56323581Y-80562180D02*
G01*
X56350075Y-80588674D01*
X56384333Y-80657190D01*
X56384333Y-80764637D01*
X56350074Y-80833153D01*
X56319667Y-80863561D01*
X56251152Y-80897819D01*
X55962905Y-80897819D01*
X55962905Y-80524009D01*
X56209068Y-80524009D01*
X56323581Y-80562180D01*
G37*
G36*
X56272049Y-80082077D02*
G01*
X56302456Y-80112484D01*
X56336714Y-80181000D01*
X56336714Y-80240828D01*
X56302456Y-80309344D01*
X56272049Y-80339751D01*
X56203533Y-80374009D01*
X55962905Y-80374009D01*
X55962905Y-80047819D01*
X56203533Y-80047819D01*
X56272049Y-80082077D01*
G37*
G36*
X56645444Y-81158930D02*
G01*
X54654175Y-81158930D01*
X54654175Y-79972819D01*
X54765286Y-79972819D01*
X54765286Y-80972819D01*
X54766727Y-80987451D01*
X54777926Y-81014487D01*
X54798618Y-81035179D01*
X54825654Y-81046378D01*
X54854918Y-81046378D01*
X54881954Y-81035179D01*
X54902646Y-81014487D01*
X54913845Y-80987451D01*
X54915286Y-80972819D01*
X54915286Y-80524009D01*
X55336714Y-80524009D01*
X55336714Y-80972819D01*
X55338155Y-80987451D01*
X55349354Y-81014487D01*
X55370046Y-81035179D01*
X55397082Y-81046378D01*
X55426346Y-81046378D01*
X55453382Y-81035179D01*
X55474074Y-81014487D01*
X55485273Y-80987451D01*
X55486714Y-80972819D01*
X55486714Y-79972819D01*
X55812905Y-79972819D01*
X55812905Y-80972819D01*
X55814346Y-80987451D01*
X55825545Y-81014487D01*
X55846237Y-81035179D01*
X55873273Y-81046378D01*
X55887905Y-81047819D01*
X56268857Y-81047819D01*
X56283489Y-81046378D01*
X56285978Y-81045346D01*
X56288666Y-81045156D01*
X56302398Y-81039901D01*
X56397636Y-80992282D01*
X56403935Y-80988317D01*
X56405763Y-80987560D01*
X56407819Y-80985872D01*
X56410079Y-80984450D01*
X56411379Y-80982950D01*
X56417129Y-80978232D01*
X56464747Y-80930613D01*
X56469465Y-80924863D01*
X56470964Y-80923564D01*
X56472385Y-80921305D01*
X56474075Y-80919247D01*
X56474832Y-80917417D01*
X56478796Y-80911121D01*
X56526415Y-80815883D01*
X56531670Y-80802152D01*
X56531861Y-80799462D01*
X56532892Y-80796974D01*
X56534333Y-80782342D01*
X56534333Y-80639485D01*
X56532892Y-80624853D01*
X56531861Y-80622364D01*
X56531670Y-80619675D01*
X56526415Y-80605944D01*
X56478796Y-80510706D01*
X56474831Y-80504406D01*
X56474074Y-80502579D01*
X56472385Y-80500522D01*
X56470964Y-80498263D01*
X56469465Y-80496963D01*
X56464747Y-80491214D01*
X56417128Y-80443595D01*
X56405763Y-80434268D01*
X56403272Y-80433236D01*
X56401237Y-80431471D01*
X56395169Y-80428762D01*
X56417128Y-80406804D01*
X56421846Y-80401054D01*
X56423345Y-80399755D01*
X56424766Y-80397495D01*
X56426455Y-80395439D01*
X56427212Y-80393611D01*
X56431177Y-80387312D01*
X56478796Y-80292074D01*
X56484051Y-80278343D01*
X56484242Y-80275653D01*
X56485273Y-80273165D01*
X56486714Y-80258533D01*
X56486714Y-80163295D01*
X56485273Y-80148663D01*
X56484242Y-80146174D01*
X56484051Y-80143485D01*
X56478796Y-80129754D01*
X56431177Y-80034516D01*
X56427212Y-80028216D01*
X56426455Y-80026389D01*
X56424766Y-80024332D01*
X56423345Y-80022073D01*
X56421846Y-80020773D01*
X56417128Y-80015024D01*
X56369509Y-79967405D01*
X56363759Y-79962686D01*
X56362460Y-79961188D01*
X56360200Y-79959766D01*
X56358144Y-79958078D01*
X56356316Y-79957320D01*
X56350017Y-79953356D01*
X56254779Y-79905737D01*
X56241047Y-79900482D01*
X56238359Y-79900291D01*
X56235870Y-79899260D01*
X56221238Y-79897819D01*
X55887905Y-79897819D01*
X55873273Y-79899260D01*
X55846237Y-79910459D01*
X55825545Y-79931151D01*
X55814346Y-79958187D01*
X55812905Y-79972819D01*
X55486714Y-79972819D01*
X55485273Y-79958187D01*
X55474074Y-79931151D01*
X55453382Y-79910459D01*
X55426346Y-79899260D01*
X55397082Y-79899260D01*
X55370046Y-79910459D01*
X55349354Y-79931151D01*
X55338155Y-79958187D01*
X55336714Y-79972819D01*
X55336714Y-80374009D01*
X54915286Y-80374009D01*
X54915286Y-79972819D01*
X54913845Y-79958187D01*
X54902646Y-79931151D01*
X54881954Y-79910459D01*
X54854918Y-79899260D01*
X54825654Y-79899260D01*
X54798618Y-79910459D01*
X54777926Y-79931151D01*
X54766727Y-79958187D01*
X54765286Y-79972819D01*
X54654175Y-79972819D01*
X54654175Y-79786708D01*
X56645444Y-79786708D01*
X56645444Y-81158930D01*
G37*
X97405866Y-43955619D02*
X97405866Y-44669904D01*
X97405866Y-44669904D02*
X97358247Y-44812761D01*
X97358247Y-44812761D02*
X97263009Y-44908000D01*
X97263009Y-44908000D02*
X97120152Y-44955619D01*
X97120152Y-44955619D02*
X97024914Y-44955619D01*
X98310628Y-44288952D02*
X98310628Y-44955619D01*
X98072533Y-43908000D02*
X97834438Y-44622285D01*
X97834438Y-44622285D02*
X98453485Y-44622285D01*
G36*
X98404631Y-57740078D02*
G01*
X97175370Y-57740078D01*
X97175370Y-56556823D01*
X97286481Y-56556823D01*
X97288469Y-56571391D01*
X97526564Y-57571391D01*
X97528293Y-57576410D01*
X97528533Y-57578212D01*
X97529475Y-57579840D01*
X97531354Y-57585291D01*
X97537740Y-57594115D01*
X97543195Y-57603537D01*
X97546252Y-57605877D01*
X97548511Y-57608998D01*
X97557786Y-57614705D01*
X97566433Y-57621324D01*
X97570153Y-57622316D01*
X97573433Y-57624334D01*
X97584187Y-57626058D01*
X97594709Y-57628864D01*
X97598524Y-57628357D01*
X97602328Y-57628967D01*
X97612926Y-57626443D01*
X97623717Y-57625010D01*
X97627048Y-57623081D01*
X97630796Y-57622189D01*
X97639620Y-57615802D01*
X97649042Y-57610348D01*
X97651382Y-57607290D01*
X97654503Y-57605032D01*
X97660210Y-57595756D01*
X97666829Y-57587110D01*
X97668854Y-57581710D01*
X97669839Y-57580110D01*
X97670126Y-57578318D01*
X97671992Y-57573344D01*
X97789999Y-57130813D01*
X97908008Y-57573344D01*
X97909873Y-57578319D01*
X97910161Y-57580110D01*
X97911145Y-57581709D01*
X97913171Y-57587111D01*
X97919791Y-57595759D01*
X97925497Y-57605032D01*
X97928617Y-57607290D01*
X97930958Y-57610348D01*
X97940379Y-57615802D01*
X97949204Y-57622189D01*
X97952951Y-57623081D01*
X97956283Y-57625010D01*
X97967076Y-57626444D01*
X97977672Y-57628967D01*
X97981473Y-57628357D01*
X97985292Y-57628865D01*
X97995823Y-57626056D01*
X98006567Y-57624334D01*
X98009843Y-57622318D01*
X98013567Y-57621325D01*
X98022217Y-57614703D01*
X98031489Y-57608998D01*
X98033747Y-57605877D01*
X98036805Y-57603537D01*
X98042260Y-57594114D01*
X98048646Y-57585291D01*
X98050523Y-57579842D01*
X98051467Y-57578213D01*
X98051706Y-57576409D01*
X98053436Y-57571391D01*
X98291532Y-56571391D01*
X98293520Y-56556823D01*
X98288887Y-56527928D01*
X98273551Y-56503006D01*
X98249844Y-56485850D01*
X98221376Y-56479071D01*
X98192481Y-56483704D01*
X98167559Y-56499040D01*
X98150402Y-56522747D01*
X98145612Y-56536648D01*
X97976359Y-57247503D01*
X97862468Y-56820408D01*
X97861182Y-56816980D01*
X97860991Y-56815539D01*
X97859999Y-56813826D01*
X97857305Y-56806642D01*
X97851290Y-56798783D01*
X97846329Y-56790215D01*
X97842470Y-56787261D01*
X97839518Y-56783404D01*
X97830953Y-56778445D01*
X97823091Y-56772427D01*
X97818394Y-56771174D01*
X97814193Y-56768742D01*
X97804386Y-56767439D01*
X97794816Y-56764887D01*
X97789997Y-56765527D01*
X97785185Y-56764888D01*
X97775624Y-56767437D01*
X97765807Y-56768742D01*
X97761601Y-56771176D01*
X97756909Y-56772428D01*
X97749049Y-56778443D01*
X97740482Y-56783404D01*
X97737528Y-56787262D01*
X97733671Y-56790215D01*
X97728712Y-56798780D01*
X97722695Y-56806641D01*
X97719998Y-56813830D01*
X97719009Y-56815540D01*
X97718817Y-56816979D01*
X97717532Y-56820408D01*
X97603640Y-57247503D01*
X97434389Y-56536647D01*
X97429599Y-56522747D01*
X97412442Y-56499040D01*
X97387520Y-56483704D01*
X97358625Y-56479071D01*
X97330157Y-56485849D01*
X97306450Y-56503006D01*
X97291114Y-56527928D01*
X97286481Y-56556823D01*
X97175370Y-56556823D01*
X97175370Y-56367960D01*
X98404631Y-56367960D01*
X98404631Y-57740078D01*
G37*
X60692143Y-36876009D02*
X61025476Y-36876009D01*
X61168333Y-37399819D02*
X60692143Y-37399819D01*
X60692143Y-37399819D02*
X60692143Y-36399819D01*
X60692143Y-36399819D02*
X61168333Y-36399819D01*
X61549286Y-37352200D02*
X61692143Y-37399819D01*
X61692143Y-37399819D02*
X61930238Y-37399819D01*
X61930238Y-37399819D02*
X62025476Y-37352200D01*
X62025476Y-37352200D02*
X62073095Y-37304580D01*
X62073095Y-37304580D02*
X62120714Y-37209342D01*
X62120714Y-37209342D02*
X62120714Y-37114104D01*
X62120714Y-37114104D02*
X62073095Y-37018866D01*
X62073095Y-37018866D02*
X62025476Y-36971247D01*
X62025476Y-36971247D02*
X61930238Y-36923628D01*
X61930238Y-36923628D02*
X61739762Y-36876009D01*
X61739762Y-36876009D02*
X61644524Y-36828390D01*
X61644524Y-36828390D02*
X61596905Y-36780771D01*
X61596905Y-36780771D02*
X61549286Y-36685533D01*
X61549286Y-36685533D02*
X61549286Y-36590295D01*
X61549286Y-36590295D02*
X61596905Y-36495057D01*
X61596905Y-36495057D02*
X61644524Y-36447438D01*
X61644524Y-36447438D02*
X61739762Y-36399819D01*
X61739762Y-36399819D02*
X61977857Y-36399819D01*
X61977857Y-36399819D02*
X62120714Y-36447438D01*
X62549286Y-37399819D02*
X62549286Y-36399819D01*
X62549286Y-36399819D02*
X62930238Y-36399819D01*
X62930238Y-36399819D02*
X63025476Y-36447438D01*
X63025476Y-36447438D02*
X63073095Y-36495057D01*
X63073095Y-36495057D02*
X63120714Y-36590295D01*
X63120714Y-36590295D02*
X63120714Y-36733152D01*
X63120714Y-36733152D02*
X63073095Y-36828390D01*
X63073095Y-36828390D02*
X63025476Y-36876009D01*
X63025476Y-36876009D02*
X62930238Y-36923628D01*
X62930238Y-36923628D02*
X62549286Y-36923628D01*
X63454048Y-36399819D02*
X64073095Y-36399819D01*
X64073095Y-36399819D02*
X63739762Y-36780771D01*
X63739762Y-36780771D02*
X63882619Y-36780771D01*
X63882619Y-36780771D02*
X63977857Y-36828390D01*
X63977857Y-36828390D02*
X64025476Y-36876009D01*
X64025476Y-36876009D02*
X64073095Y-36971247D01*
X64073095Y-36971247D02*
X64073095Y-37209342D01*
X64073095Y-37209342D02*
X64025476Y-37304580D01*
X64025476Y-37304580D02*
X63977857Y-37352200D01*
X63977857Y-37352200D02*
X63882619Y-37399819D01*
X63882619Y-37399819D02*
X63596905Y-37399819D01*
X63596905Y-37399819D02*
X63501667Y-37352200D01*
X63501667Y-37352200D02*
X63454048Y-37304580D01*
X64454048Y-36495057D02*
X64501667Y-36447438D01*
X64501667Y-36447438D02*
X64596905Y-36399819D01*
X64596905Y-36399819D02*
X64835000Y-36399819D01*
X64835000Y-36399819D02*
X64930238Y-36447438D01*
X64930238Y-36447438D02*
X64977857Y-36495057D01*
X64977857Y-36495057D02*
X65025476Y-36590295D01*
X65025476Y-36590295D02*
X65025476Y-36685533D01*
X65025476Y-36685533D02*
X64977857Y-36828390D01*
X64977857Y-36828390D02*
X64406429Y-37399819D01*
X64406429Y-37399819D02*
X65025476Y-37399819D01*
X71517143Y-68511009D02*
X71850476Y-68511009D01*
X71993333Y-69034819D02*
X71517143Y-69034819D01*
X71517143Y-69034819D02*
X71517143Y-68034819D01*
X71517143Y-68034819D02*
X71993333Y-68034819D01*
X72374286Y-68987200D02*
X72517143Y-69034819D01*
X72517143Y-69034819D02*
X72755238Y-69034819D01*
X72755238Y-69034819D02*
X72850476Y-68987200D01*
X72850476Y-68987200D02*
X72898095Y-68939580D01*
X72898095Y-68939580D02*
X72945714Y-68844342D01*
X72945714Y-68844342D02*
X72945714Y-68749104D01*
X72945714Y-68749104D02*
X72898095Y-68653866D01*
X72898095Y-68653866D02*
X72850476Y-68606247D01*
X72850476Y-68606247D02*
X72755238Y-68558628D01*
X72755238Y-68558628D02*
X72564762Y-68511009D01*
X72564762Y-68511009D02*
X72469524Y-68463390D01*
X72469524Y-68463390D02*
X72421905Y-68415771D01*
X72421905Y-68415771D02*
X72374286Y-68320533D01*
X72374286Y-68320533D02*
X72374286Y-68225295D01*
X72374286Y-68225295D02*
X72421905Y-68130057D01*
X72421905Y-68130057D02*
X72469524Y-68082438D01*
X72469524Y-68082438D02*
X72564762Y-68034819D01*
X72564762Y-68034819D02*
X72802857Y-68034819D01*
X72802857Y-68034819D02*
X72945714Y-68082438D01*
X73374286Y-69034819D02*
X73374286Y-68034819D01*
X73374286Y-68034819D02*
X73755238Y-68034819D01*
X73755238Y-68034819D02*
X73850476Y-68082438D01*
X73850476Y-68082438D02*
X73898095Y-68130057D01*
X73898095Y-68130057D02*
X73945714Y-68225295D01*
X73945714Y-68225295D02*
X73945714Y-68368152D01*
X73945714Y-68368152D02*
X73898095Y-68463390D01*
X73898095Y-68463390D02*
X73850476Y-68511009D01*
X73850476Y-68511009D02*
X73755238Y-68558628D01*
X73755238Y-68558628D02*
X73374286Y-68558628D01*
X74279048Y-68034819D02*
X74898095Y-68034819D01*
X74898095Y-68034819D02*
X74564762Y-68415771D01*
X74564762Y-68415771D02*
X74707619Y-68415771D01*
X74707619Y-68415771D02*
X74802857Y-68463390D01*
X74802857Y-68463390D02*
X74850476Y-68511009D01*
X74850476Y-68511009D02*
X74898095Y-68606247D01*
X74898095Y-68606247D02*
X74898095Y-68844342D01*
X74898095Y-68844342D02*
X74850476Y-68939580D01*
X74850476Y-68939580D02*
X74802857Y-68987200D01*
X74802857Y-68987200D02*
X74707619Y-69034819D01*
X74707619Y-69034819D02*
X74421905Y-69034819D01*
X74421905Y-69034819D02*
X74326667Y-68987200D01*
X74326667Y-68987200D02*
X74279048Y-68939580D01*
X75279048Y-68130057D02*
X75326667Y-68082438D01*
X75326667Y-68082438D02*
X75421905Y-68034819D01*
X75421905Y-68034819D02*
X75660000Y-68034819D01*
X75660000Y-68034819D02*
X75755238Y-68082438D01*
X75755238Y-68082438D02*
X75802857Y-68130057D01*
X75802857Y-68130057D02*
X75850476Y-68225295D01*
X75850476Y-68225295D02*
X75850476Y-68320533D01*
X75850476Y-68320533D02*
X75802857Y-68463390D01*
X75802857Y-68463390D02*
X75231429Y-69034819D01*
X75231429Y-69034819D02*
X75850476Y-69034819D01*
X53947219Y-46750266D02*
X53471028Y-47083599D01*
X53947219Y-47321694D02*
X52947219Y-47321694D01*
X52947219Y-47321694D02*
X52947219Y-46940742D01*
X52947219Y-46940742D02*
X52994838Y-46845504D01*
X52994838Y-46845504D02*
X53042457Y-46797885D01*
X53042457Y-46797885D02*
X53137695Y-46750266D01*
X53137695Y-46750266D02*
X53280552Y-46750266D01*
X53280552Y-46750266D02*
X53375790Y-46797885D01*
X53375790Y-46797885D02*
X53423409Y-46845504D01*
X53423409Y-46845504D02*
X53471028Y-46940742D01*
X53471028Y-46940742D02*
X53471028Y-47321694D01*
X52947219Y-46416932D02*
X52947219Y-45797885D01*
X52947219Y-45797885D02*
X53328171Y-46131218D01*
X53328171Y-46131218D02*
X53328171Y-45988361D01*
X53328171Y-45988361D02*
X53375790Y-45893123D01*
X53375790Y-45893123D02*
X53423409Y-45845504D01*
X53423409Y-45845504D02*
X53518647Y-45797885D01*
X53518647Y-45797885D02*
X53756742Y-45797885D01*
X53756742Y-45797885D02*
X53851980Y-45845504D01*
X53851980Y-45845504D02*
X53899600Y-45893123D01*
X53899600Y-45893123D02*
X53947219Y-45988361D01*
X53947219Y-45988361D02*
X53947219Y-46274075D01*
X53947219Y-46274075D02*
X53899600Y-46369313D01*
X53899600Y-46369313D02*
X53851980Y-46416932D01*
X49196666Y-44114819D02*
X49196666Y-44829104D01*
X49196666Y-44829104D02*
X49149047Y-44971961D01*
X49149047Y-44971961D02*
X49053809Y-45067200D01*
X49053809Y-45067200D02*
X48910952Y-45114819D01*
X48910952Y-45114819D02*
X48815714Y-45114819D01*
X50196666Y-45114819D02*
X49625238Y-45114819D01*
X49910952Y-45114819D02*
X49910952Y-44114819D01*
X49910952Y-44114819D02*
X49815714Y-44257676D01*
X49815714Y-44257676D02*
X49720476Y-44352914D01*
X49720476Y-44352914D02*
X49625238Y-44400533D01*
G36*
X50049444Y-57917930D02*
G01*
X49010556Y-57917930D01*
X49010556Y-56731740D01*
X49121667Y-56731740D01*
X49127346Y-56760448D01*
X49134263Y-56773421D01*
X49439861Y-57231819D01*
X49134263Y-57690217D01*
X49127346Y-57703190D01*
X49121667Y-57731898D01*
X49127406Y-57760592D01*
X49143689Y-57784907D01*
X49168038Y-57801140D01*
X49196746Y-57806819D01*
X49225440Y-57801080D01*
X49249755Y-57784797D01*
X49259071Y-57773421D01*
X49530000Y-57367027D01*
X49800929Y-57773421D01*
X49810245Y-57784797D01*
X49834560Y-57801080D01*
X49863254Y-57806819D01*
X49891962Y-57801140D01*
X49916311Y-57784907D01*
X49932594Y-57760592D01*
X49938333Y-57731898D01*
X49932654Y-57703190D01*
X49925737Y-57690216D01*
X49620139Y-57231819D01*
X49925737Y-56773422D01*
X49932654Y-56760448D01*
X49938333Y-56731740D01*
X49932594Y-56703046D01*
X49916311Y-56678731D01*
X49891962Y-56662498D01*
X49863254Y-56656819D01*
X49834560Y-56662558D01*
X49810245Y-56678841D01*
X49800929Y-56690217D01*
X49530000Y-57096610D01*
X49259071Y-56690217D01*
X49249755Y-56678841D01*
X49225440Y-56662558D01*
X49196746Y-56656819D01*
X49168038Y-56662498D01*
X49143689Y-56678731D01*
X49127406Y-56703046D01*
X49121667Y-56731740D01*
X49010556Y-56731740D01*
X49010556Y-56545708D01*
X50049444Y-56545708D01*
X50049444Y-57917930D01*
G37*
X93977619Y-50877694D02*
X92977619Y-50877694D01*
X92977619Y-50877694D02*
X92977619Y-50639599D01*
X92977619Y-50639599D02*
X93025238Y-50496742D01*
X93025238Y-50496742D02*
X93120476Y-50401504D01*
X93120476Y-50401504D02*
X93215714Y-50353885D01*
X93215714Y-50353885D02*
X93406190Y-50306266D01*
X93406190Y-50306266D02*
X93549047Y-50306266D01*
X93549047Y-50306266D02*
X93739523Y-50353885D01*
X93739523Y-50353885D02*
X93834761Y-50401504D01*
X93834761Y-50401504D02*
X93930000Y-50496742D01*
X93930000Y-50496742D02*
X93977619Y-50639599D01*
X93977619Y-50639599D02*
X93977619Y-50877694D01*
X93072857Y-49925313D02*
X93025238Y-49877694D01*
X93025238Y-49877694D02*
X92977619Y-49782456D01*
X92977619Y-49782456D02*
X92977619Y-49544361D01*
X92977619Y-49544361D02*
X93025238Y-49449123D01*
X93025238Y-49449123D02*
X93072857Y-49401504D01*
X93072857Y-49401504D02*
X93168095Y-49353885D01*
X93168095Y-49353885D02*
X93263333Y-49353885D01*
X93263333Y-49353885D02*
X93406190Y-49401504D01*
X93406190Y-49401504D02*
X93977619Y-49972932D01*
X93977619Y-49972932D02*
X93977619Y-49353885D01*
G36*
X92050181Y-52291104D02*
G01*
X91782105Y-52291104D01*
X91916143Y-51888989D01*
X92050181Y-52291104D01*
G37*
G36*
X92434998Y-52837930D02*
G01*
X89777651Y-52837930D01*
X89777651Y-51842295D01*
X89888762Y-51842295D01*
X89888762Y-51937533D01*
X89890203Y-51952165D01*
X89891234Y-51954654D01*
X89891425Y-51957342D01*
X89896680Y-51971074D01*
X89944299Y-52066312D01*
X89948263Y-52072611D01*
X89949021Y-52074439D01*
X89950709Y-52076495D01*
X89952131Y-52078755D01*
X89953629Y-52080054D01*
X89958348Y-52085804D01*
X90005967Y-52133423D01*
X90011716Y-52138141D01*
X90013016Y-52139640D01*
X90015275Y-52141061D01*
X90017332Y-52142750D01*
X90019159Y-52143507D01*
X90025459Y-52147472D01*
X90120697Y-52195091D01*
X90121766Y-52195500D01*
X90122202Y-52195823D01*
X90128338Y-52198015D01*
X90134428Y-52200346D01*
X90134968Y-52200384D01*
X90136048Y-52200770D01*
X90318538Y-52246392D01*
X90395525Y-52284886D01*
X90425932Y-52315293D01*
X90460190Y-52383809D01*
X90460190Y-52443637D01*
X90425931Y-52512153D01*
X90395524Y-52542561D01*
X90327009Y-52576819D01*
X90118789Y-52576819D01*
X89987479Y-52533049D01*
X89973142Y-52529789D01*
X89943952Y-52531864D01*
X89917779Y-52544950D01*
X89898605Y-52567057D01*
X89889351Y-52594820D01*
X89891426Y-52624010D01*
X89904512Y-52650183D01*
X89926619Y-52669357D01*
X89940045Y-52675351D01*
X90082901Y-52722970D01*
X90090156Y-52724619D01*
X90091987Y-52725378D01*
X90094640Y-52725639D01*
X90097238Y-52726230D01*
X90099212Y-52726089D01*
X90106619Y-52726819D01*
X90344714Y-52726819D01*
X90359346Y-52725378D01*
X90361835Y-52724346D01*
X90364523Y-52724156D01*
X90378255Y-52718901D01*
X90473493Y-52671282D01*
X90479792Y-52667317D01*
X90481620Y-52666560D01*
X90483676Y-52664872D01*
X90485936Y-52663450D01*
X90487236Y-52661950D01*
X90492986Y-52657232D01*
X90540604Y-52609613D01*
X90545322Y-52603863D01*
X90546821Y-52602564D01*
X90548242Y-52600305D01*
X90549932Y-52598247D01*
X90550689Y-52596417D01*
X90554653Y-52590121D01*
X90602272Y-52494883D01*
X90607527Y-52481152D01*
X90607718Y-52478462D01*
X90608749Y-52475974D01*
X90610190Y-52461342D01*
X90610190Y-52366104D01*
X90608749Y-52351472D01*
X90607718Y-52348983D01*
X90607527Y-52346294D01*
X90602272Y-52332563D01*
X90554653Y-52237325D01*
X90550688Y-52231025D01*
X90549931Y-52229198D01*
X90548242Y-52227141D01*
X90546821Y-52224882D01*
X90545322Y-52223582D01*
X90540604Y-52217833D01*
X90492985Y-52170214D01*
X90487235Y-52165495D01*
X90485936Y-52163997D01*
X90483676Y-52162575D01*
X90481620Y-52160887D01*
X90479792Y-52160129D01*
X90473493Y-52156165D01*
X90378255Y-52108546D01*
X90377185Y-52108136D01*
X90376750Y-52107814D01*
X90370604Y-52105618D01*
X90364523Y-52103291D01*
X90363983Y-52103252D01*
X90362904Y-52102867D01*
X90180414Y-52057244D01*
X90103427Y-52018751D01*
X90073020Y-51988344D01*
X90038762Y-51919828D01*
X90038762Y-51860000D01*
X90073020Y-51791484D01*
X90103427Y-51761077D01*
X90171943Y-51726819D01*
X90380163Y-51726819D01*
X90511472Y-51770589D01*
X90525809Y-51773849D01*
X90554999Y-51771774D01*
X90581173Y-51758688D01*
X90600347Y-51736580D01*
X90609601Y-51708818D01*
X90607526Y-51679628D01*
X90594439Y-51653455D01*
X90575683Y-51637187D01*
X90747346Y-51637187D01*
X90747346Y-51666451D01*
X90758545Y-51693487D01*
X90779237Y-51714179D01*
X90806273Y-51725378D01*
X90820905Y-51726819D01*
X91031619Y-51726819D01*
X91031619Y-52651819D01*
X91033060Y-52666451D01*
X91044259Y-52693487D01*
X91064951Y-52714179D01*
X91091987Y-52725378D01*
X91121251Y-52725378D01*
X91148287Y-52714179D01*
X91168979Y-52693487D01*
X91180178Y-52666451D01*
X91181619Y-52651819D01*
X91181619Y-52642439D01*
X91508399Y-52642439D01*
X91510474Y-52671629D01*
X91523560Y-52697802D01*
X91545667Y-52716976D01*
X91573430Y-52726230D01*
X91602620Y-52724155D01*
X91628793Y-52711069D01*
X91647967Y-52688962D01*
X91653961Y-52675536D01*
X91732105Y-52441104D01*
X92100181Y-52441104D01*
X92178325Y-52675536D01*
X92184319Y-52688961D01*
X92203493Y-52711068D01*
X92229666Y-52724155D01*
X92258856Y-52726230D01*
X92286618Y-52716976D01*
X92308726Y-52697802D01*
X92321812Y-52671628D01*
X92323887Y-52642438D01*
X92320627Y-52628102D01*
X91987294Y-51628102D01*
X91981300Y-51614676D01*
X91977788Y-51610627D01*
X91975393Y-51605836D01*
X91968289Y-51599674D01*
X91962126Y-51592569D01*
X91957332Y-51590172D01*
X91953285Y-51586662D01*
X91944363Y-51583688D01*
X91935953Y-51579483D01*
X91930608Y-51579103D01*
X91925523Y-51577408D01*
X91916143Y-51578074D01*
X91906763Y-51577408D01*
X91901677Y-51579103D01*
X91896333Y-51579483D01*
X91887925Y-51583687D01*
X91879000Y-51586662D01*
X91874949Y-51590175D01*
X91870160Y-51592570D01*
X91864001Y-51599670D01*
X91856893Y-51605836D01*
X91854496Y-51610629D01*
X91850986Y-51614677D01*
X91844992Y-51628102D01*
X91511659Y-52628102D01*
X91508399Y-52642439D01*
X91181619Y-52642439D01*
X91181619Y-51726819D01*
X91392333Y-51726819D01*
X91406965Y-51725378D01*
X91434001Y-51714179D01*
X91454693Y-51693487D01*
X91465892Y-51666451D01*
X91465892Y-51637187D01*
X91454693Y-51610151D01*
X91434001Y-51589459D01*
X91406965Y-51578260D01*
X91392333Y-51576819D01*
X90820905Y-51576819D01*
X90806273Y-51578260D01*
X90779237Y-51589459D01*
X90758545Y-51610151D01*
X90747346Y-51637187D01*
X90575683Y-51637187D01*
X90572332Y-51634281D01*
X90558907Y-51628287D01*
X90416050Y-51580668D01*
X90408796Y-51579018D01*
X90406965Y-51578260D01*
X90404310Y-51577998D01*
X90401713Y-51577408D01*
X90399738Y-51577548D01*
X90392333Y-51576819D01*
X90154238Y-51576819D01*
X90139606Y-51578260D01*
X90137117Y-51579290D01*
X90134428Y-51579482D01*
X90120697Y-51584737D01*
X90025459Y-51632356D01*
X90019159Y-51636320D01*
X90017332Y-51637078D01*
X90015275Y-51638766D01*
X90013016Y-51640188D01*
X90011716Y-51641686D01*
X90005967Y-51646405D01*
X89958348Y-51694024D01*
X89953629Y-51699773D01*
X89952131Y-51701073D01*
X89950709Y-51703332D01*
X89949021Y-51705389D01*
X89948263Y-51707216D01*
X89944299Y-51713516D01*
X89896680Y-51808754D01*
X89891425Y-51822486D01*
X89891234Y-51825173D01*
X89890203Y-51827663D01*
X89888762Y-51842295D01*
X89777651Y-51842295D01*
X89777651Y-51465708D01*
X92434998Y-51465708D01*
X92434998Y-52837930D01*
G37*
X55270780Y-58129466D02*
X55318400Y-58177085D01*
X55318400Y-58177085D02*
X55366019Y-58319942D01*
X55366019Y-58319942D02*
X55366019Y-58415180D01*
X55366019Y-58415180D02*
X55318400Y-58558037D01*
X55318400Y-58558037D02*
X55223161Y-58653275D01*
X55223161Y-58653275D02*
X55127923Y-58700894D01*
X55127923Y-58700894D02*
X54937447Y-58748513D01*
X54937447Y-58748513D02*
X54794590Y-58748513D01*
X54794590Y-58748513D02*
X54604114Y-58700894D01*
X54604114Y-58700894D02*
X54508876Y-58653275D01*
X54508876Y-58653275D02*
X54413638Y-58558037D01*
X54413638Y-58558037D02*
X54366019Y-58415180D01*
X54366019Y-58415180D02*
X54366019Y-58319942D01*
X54366019Y-58319942D02*
X54413638Y-58177085D01*
X54413638Y-58177085D02*
X54461257Y-58129466D01*
X54366019Y-57796132D02*
X54366019Y-57177085D01*
X54366019Y-57177085D02*
X54746971Y-57510418D01*
X54746971Y-57510418D02*
X54746971Y-57367561D01*
X54746971Y-57367561D02*
X54794590Y-57272323D01*
X54794590Y-57272323D02*
X54842209Y-57224704D01*
X54842209Y-57224704D02*
X54937447Y-57177085D01*
X54937447Y-57177085D02*
X55175542Y-57177085D01*
X55175542Y-57177085D02*
X55270780Y-57224704D01*
X55270780Y-57224704D02*
X55318400Y-57272323D01*
X55318400Y-57272323D02*
X55366019Y-57367561D01*
X55366019Y-57367561D02*
X55366019Y-57653275D01*
X55366019Y-57653275D02*
X55318400Y-57748513D01*
X55318400Y-57748513D02*
X55270780Y-57796132D01*
X49191666Y-73334819D02*
X49191666Y-74049104D01*
X49191666Y-74049104D02*
X49144047Y-74191961D01*
X49144047Y-74191961D02*
X49048809Y-74287200D01*
X49048809Y-74287200D02*
X48905952Y-74334819D01*
X48905952Y-74334819D02*
X48810714Y-74334819D01*
X49620238Y-73430057D02*
X49667857Y-73382438D01*
X49667857Y-73382438D02*
X49763095Y-73334819D01*
X49763095Y-73334819D02*
X50001190Y-73334819D01*
X50001190Y-73334819D02*
X50096428Y-73382438D01*
X50096428Y-73382438D02*
X50144047Y-73430057D01*
X50144047Y-73430057D02*
X50191666Y-73525295D01*
X50191666Y-73525295D02*
X50191666Y-73620533D01*
X50191666Y-73620533D02*
X50144047Y-73763390D01*
X50144047Y-73763390D02*
X49572619Y-74334819D01*
X49572619Y-74334819D02*
X50191666Y-74334819D01*
G36*
X50044425Y-86799489D02*
G01*
X49005575Y-86799489D01*
X49005575Y-85613145D01*
X49116686Y-85613145D01*
X49121753Y-85641967D01*
X49128392Y-85655085D01*
X49450000Y-86160469D01*
X49450000Y-86614819D01*
X49451441Y-86629451D01*
X49462640Y-86656487D01*
X49483332Y-86677179D01*
X49510368Y-86688378D01*
X49539632Y-86688378D01*
X49566668Y-86677179D01*
X49587360Y-86656487D01*
X49598559Y-86629451D01*
X49600000Y-86614819D01*
X49600000Y-86160468D01*
X49921608Y-85655084D01*
X49928248Y-85641966D01*
X49933314Y-85613145D01*
X49926966Y-85584579D01*
X49910170Y-85560615D01*
X49885481Y-85544904D01*
X49856659Y-85539838D01*
X49828093Y-85546186D01*
X49804130Y-85562982D01*
X49795058Y-85574553D01*
X49524999Y-85998930D01*
X49254942Y-85574553D01*
X49245870Y-85562983D01*
X49221907Y-85546186D01*
X49193341Y-85539838D01*
X49164519Y-85544905D01*
X49139831Y-85560616D01*
X49123034Y-85584579D01*
X49116686Y-85613145D01*
X49005575Y-85613145D01*
X49005575Y-85428727D01*
X50044425Y-85428727D01*
X50044425Y-86799489D01*
G37*
X51373095Y-58959819D02*
X51373095Y-59769342D01*
X51373095Y-59769342D02*
X51420714Y-59864580D01*
X51420714Y-59864580D02*
X51468333Y-59912200D01*
X51468333Y-59912200D02*
X51563571Y-59959819D01*
X51563571Y-59959819D02*
X51754047Y-59959819D01*
X51754047Y-59959819D02*
X51849285Y-59912200D01*
X51849285Y-59912200D02*
X51896904Y-59864580D01*
X51896904Y-59864580D02*
X51944523Y-59769342D01*
X51944523Y-59769342D02*
X51944523Y-58959819D01*
X52373095Y-59055057D02*
X52420714Y-59007438D01*
X52420714Y-59007438D02*
X52515952Y-58959819D01*
X52515952Y-58959819D02*
X52754047Y-58959819D01*
X52754047Y-58959819D02*
X52849285Y-59007438D01*
X52849285Y-59007438D02*
X52896904Y-59055057D01*
X52896904Y-59055057D02*
X52944523Y-59150295D01*
X52944523Y-59150295D02*
X52944523Y-59245533D01*
X52944523Y-59245533D02*
X52896904Y-59388390D01*
X52896904Y-59388390D02*
X52325476Y-59959819D01*
X52325476Y-59959819D02*
X52944523Y-59959819D01*
X94553095Y-70759819D02*
X94553095Y-71569342D01*
X94553095Y-71569342D02*
X94600714Y-71664580D01*
X94600714Y-71664580D02*
X94648333Y-71712200D01*
X94648333Y-71712200D02*
X94743571Y-71759819D01*
X94743571Y-71759819D02*
X94934047Y-71759819D01*
X94934047Y-71759819D02*
X95029285Y-71712200D01*
X95029285Y-71712200D02*
X95076904Y-71664580D01*
X95076904Y-71664580D02*
X95124523Y-71569342D01*
X95124523Y-71569342D02*
X95124523Y-70759819D01*
X95505476Y-70759819D02*
X96124523Y-70759819D01*
X96124523Y-70759819D02*
X95791190Y-71140771D01*
X95791190Y-71140771D02*
X95934047Y-71140771D01*
X95934047Y-71140771D02*
X96029285Y-71188390D01*
X96029285Y-71188390D02*
X96076904Y-71236009D01*
X96076904Y-71236009D02*
X96124523Y-71331247D01*
X96124523Y-71331247D02*
X96124523Y-71569342D01*
X96124523Y-71569342D02*
X96076904Y-71664580D01*
X96076904Y-71664580D02*
X96029285Y-71712200D01*
X96029285Y-71712200D02*
X95934047Y-71759819D01*
X95934047Y-71759819D02*
X95648333Y-71759819D01*
X95648333Y-71759819D02*
X95553095Y-71712200D01*
X95553095Y-71712200D02*
X95505476Y-71664580D01*
X89028019Y-77067466D02*
X88551828Y-77400799D01*
X89028019Y-77638894D02*
X88028019Y-77638894D01*
X88028019Y-77638894D02*
X88028019Y-77257942D01*
X88028019Y-77257942D02*
X88075638Y-77162704D01*
X88075638Y-77162704D02*
X88123257Y-77115085D01*
X88123257Y-77115085D02*
X88218495Y-77067466D01*
X88218495Y-77067466D02*
X88361352Y-77067466D01*
X88361352Y-77067466D02*
X88456590Y-77115085D01*
X88456590Y-77115085D02*
X88504209Y-77162704D01*
X88504209Y-77162704D02*
X88551828Y-77257942D01*
X88551828Y-77257942D02*
X88551828Y-77638894D01*
X88028019Y-76162704D02*
X88028019Y-76638894D01*
X88028019Y-76638894D02*
X88504209Y-76686513D01*
X88504209Y-76686513D02*
X88456590Y-76638894D01*
X88456590Y-76638894D02*
X88408971Y-76543656D01*
X88408971Y-76543656D02*
X88408971Y-76305561D01*
X88408971Y-76305561D02*
X88456590Y-76210323D01*
X88456590Y-76210323D02*
X88504209Y-76162704D01*
X88504209Y-76162704D02*
X88599447Y-76115085D01*
X88599447Y-76115085D02*
X88837542Y-76115085D01*
X88837542Y-76115085D02*
X88932780Y-76162704D01*
X88932780Y-76162704D02*
X88980400Y-76210323D01*
X88980400Y-76210323D02*
X89028019Y-76305561D01*
X89028019Y-76305561D02*
X89028019Y-76543656D01*
X89028019Y-76543656D02*
X88980400Y-76638894D01*
X88980400Y-76638894D02*
X88932780Y-76686513D01*
X51863666Y-89624819D02*
X51863666Y-90339104D01*
X51863666Y-90339104D02*
X51816047Y-90481961D01*
X51816047Y-90481961D02*
X51720809Y-90577200D01*
X51720809Y-90577200D02*
X51577952Y-90624819D01*
X51577952Y-90624819D02*
X51482714Y-90624819D01*
X52816047Y-89624819D02*
X52339857Y-89624819D01*
X52339857Y-89624819D02*
X52292238Y-90101009D01*
X52292238Y-90101009D02*
X52339857Y-90053390D01*
X52339857Y-90053390D02*
X52435095Y-90005771D01*
X52435095Y-90005771D02*
X52673190Y-90005771D01*
X52673190Y-90005771D02*
X52768428Y-90053390D01*
X52768428Y-90053390D02*
X52816047Y-90101009D01*
X52816047Y-90101009D02*
X52863666Y-90196247D01*
X52863666Y-90196247D02*
X52863666Y-90434342D01*
X52863666Y-90434342D02*
X52816047Y-90529580D01*
X52816047Y-90529580D02*
X52768428Y-90577200D01*
X52768428Y-90577200D02*
X52673190Y-90624819D01*
X52673190Y-90624819D02*
X52435095Y-90624819D01*
X52435095Y-90624819D02*
X52339857Y-90577200D01*
X52339857Y-90577200D02*
X52292238Y-90529580D01*
G36*
X57145491Y-89286747D02*
G01*
X54726240Y-89286747D01*
X54726240Y-88110199D01*
X54837351Y-88110199D01*
X54840611Y-88124536D01*
X55173944Y-89124536D01*
X55179938Y-89137961D01*
X55183448Y-89142008D01*
X55185845Y-89146802D01*
X55192953Y-89152967D01*
X55199112Y-89160068D01*
X55203901Y-89162462D01*
X55207952Y-89165976D01*
X55216877Y-89168950D01*
X55225285Y-89173155D01*
X55230629Y-89173534D01*
X55235715Y-89175230D01*
X55245095Y-89174563D01*
X55254475Y-89175230D01*
X55259560Y-89173534D01*
X55264905Y-89173155D01*
X55273315Y-89168949D01*
X55282237Y-89165976D01*
X55286284Y-89162465D01*
X55291078Y-89160069D01*
X55297241Y-89152963D01*
X55304345Y-89146802D01*
X55306740Y-89142010D01*
X55310252Y-89137962D01*
X55316246Y-89124536D01*
X55649579Y-88124536D01*
X55652839Y-88110200D01*
X55652172Y-88100819D01*
X55836762Y-88100819D01*
X55836762Y-89100819D01*
X55838203Y-89115451D01*
X55849402Y-89142487D01*
X55870094Y-89163179D01*
X55897130Y-89174378D01*
X55926394Y-89174378D01*
X55953430Y-89163179D01*
X55974122Y-89142487D01*
X55985321Y-89115451D01*
X55986762Y-89100819D01*
X55986762Y-88100819D01*
X56312952Y-88100819D01*
X56312952Y-89100819D01*
X56314393Y-89115451D01*
X56325592Y-89142487D01*
X56346284Y-89163179D01*
X56373320Y-89174378D01*
X56402584Y-89174378D01*
X56429620Y-89163179D01*
X56450312Y-89142487D01*
X56461511Y-89115451D01*
X56462952Y-89100819D01*
X56462952Y-88383235D01*
X56894262Y-89138030D01*
X56896451Y-89141114D01*
X56897020Y-89142487D01*
X56898417Y-89143884D01*
X56902772Y-89150019D01*
X56910660Y-89156127D01*
X56917712Y-89163179D01*
X56922130Y-89165009D01*
X56925910Y-89167936D01*
X56935531Y-89170560D01*
X56944748Y-89174378D01*
X56949529Y-89174378D01*
X56954141Y-89175636D01*
X56964038Y-89174378D01*
X56974012Y-89174378D01*
X56978427Y-89172548D01*
X56983171Y-89171946D01*
X56991835Y-89166995D01*
X57001048Y-89163179D01*
X57004426Y-89159800D01*
X57008580Y-89157427D01*
X57014689Y-89149537D01*
X57021740Y-89142487D01*
X57023569Y-89138070D01*
X57026497Y-89134290D01*
X57029121Y-89124666D01*
X57032939Y-89115451D01*
X57033675Y-89107968D01*
X57034197Y-89106058D01*
X57034009Y-89104582D01*
X57034380Y-89100819D01*
X57034380Y-88100819D01*
X57032939Y-88086187D01*
X57021740Y-88059151D01*
X57001048Y-88038459D01*
X56974012Y-88027260D01*
X56944748Y-88027260D01*
X56917712Y-88038459D01*
X56897020Y-88059151D01*
X56885821Y-88086187D01*
X56884380Y-88100819D01*
X56884380Y-88818402D01*
X56453070Y-88063609D01*
X56450881Y-88060525D01*
X56450312Y-88059151D01*
X56448912Y-88057751D01*
X56444560Y-88051619D01*
X56436670Y-88045509D01*
X56429620Y-88038459D01*
X56425203Y-88036629D01*
X56421423Y-88033702D01*
X56411799Y-88031077D01*
X56402584Y-88027260D01*
X56397803Y-88027260D01*
X56393191Y-88026002D01*
X56383294Y-88027260D01*
X56373320Y-88027260D01*
X56368904Y-88029089D01*
X56364161Y-88029692D01*
X56355496Y-88034642D01*
X56346284Y-88038459D01*
X56342905Y-88041837D01*
X56338752Y-88044211D01*
X56332642Y-88052100D01*
X56325592Y-88059151D01*
X56323762Y-88063567D01*
X56320835Y-88067348D01*
X56318210Y-88076971D01*
X56314393Y-88086187D01*
X56313656Y-88093669D01*
X56313135Y-88095580D01*
X56313322Y-88097055D01*
X56312952Y-88100819D01*
X55986762Y-88100819D01*
X55985321Y-88086187D01*
X55974122Y-88059151D01*
X55953430Y-88038459D01*
X55926394Y-88027260D01*
X55897130Y-88027260D01*
X55870094Y-88038459D01*
X55849402Y-88059151D01*
X55838203Y-88086187D01*
X55836762Y-88100819D01*
X55652172Y-88100819D01*
X55650764Y-88081010D01*
X55637678Y-88054836D01*
X55615570Y-88035662D01*
X55587808Y-88026408D01*
X55558618Y-88028483D01*
X55532445Y-88041570D01*
X55513271Y-88063677D01*
X55507277Y-88077102D01*
X55245095Y-88863648D01*
X54982913Y-88077102D01*
X54976919Y-88063676D01*
X54957745Y-88041569D01*
X54931572Y-88028483D01*
X54902382Y-88026408D01*
X54874619Y-88035662D01*
X54852512Y-88054836D01*
X54839426Y-88081009D01*
X54837351Y-88110199D01*
X54726240Y-88110199D01*
X54726240Y-87914891D01*
X57145491Y-87914891D01*
X57145491Y-89286747D01*
G37*
G36*
X98309444Y-87127930D02*
G01*
X97270556Y-87127930D01*
X97270556Y-86941898D01*
X97381667Y-86941898D01*
X97383108Y-86949102D01*
X97383108Y-86956451D01*
X97385949Y-86963311D01*
X97387406Y-86970592D01*
X97391494Y-86976697D01*
X97394307Y-86983487D01*
X97399557Y-86988737D01*
X97403689Y-86994907D01*
X97409803Y-86998983D01*
X97414999Y-87004179D01*
X97421859Y-87007020D01*
X97428038Y-87011140D01*
X97435246Y-87012565D01*
X97442035Y-87015378D01*
X97456667Y-87016819D01*
X97456746Y-87016819D01*
X98123333Y-87016819D01*
X98137965Y-87015378D01*
X98165001Y-87004179D01*
X98185693Y-86983487D01*
X98196892Y-86956451D01*
X98196892Y-86927187D01*
X98185693Y-86900151D01*
X98165001Y-86879459D01*
X98137965Y-86868260D01*
X98123333Y-86866819D01*
X97596806Y-86866819D01*
X98185737Y-85983422D01*
X98192654Y-85970448D01*
X98194079Y-85963239D01*
X98196892Y-85956451D01*
X98196892Y-85949024D01*
X98198333Y-85941740D01*
X98196892Y-85934535D01*
X98196892Y-85927187D01*
X98194050Y-85920326D01*
X98192594Y-85913046D01*
X98188505Y-85906940D01*
X98185693Y-85900151D01*
X98180442Y-85894900D01*
X98176311Y-85888731D01*
X98170196Y-85884654D01*
X98165001Y-85879459D01*
X98158140Y-85876617D01*
X98151962Y-85872498D01*
X98144753Y-85871072D01*
X98137965Y-85868260D01*
X98123333Y-85866819D01*
X97456667Y-85866819D01*
X97442035Y-85868260D01*
X97414999Y-85879459D01*
X97394307Y-85900151D01*
X97383108Y-85927187D01*
X97383108Y-85956451D01*
X97394307Y-85983487D01*
X97414999Y-86004179D01*
X97442035Y-86015378D01*
X97456667Y-86016819D01*
X97983194Y-86016819D01*
X97394263Y-86900217D01*
X97387346Y-86913190D01*
X97385920Y-86920398D01*
X97383108Y-86927187D01*
X97383108Y-86934613D01*
X97381667Y-86941898D01*
X97270556Y-86941898D01*
X97270556Y-85755708D01*
X98309444Y-85755708D01*
X98309444Y-87127930D01*
G37*
X58642819Y-53013666D02*
X58166628Y-53346999D01*
X58642819Y-53585094D02*
X57642819Y-53585094D01*
X57642819Y-53585094D02*
X57642819Y-53204142D01*
X57642819Y-53204142D02*
X57690438Y-53108904D01*
X57690438Y-53108904D02*
X57738057Y-53061285D01*
X57738057Y-53061285D02*
X57833295Y-53013666D01*
X57833295Y-53013666D02*
X57976152Y-53013666D01*
X57976152Y-53013666D02*
X58071390Y-53061285D01*
X58071390Y-53061285D02*
X58119009Y-53108904D01*
X58119009Y-53108904D02*
X58166628Y-53204142D01*
X58166628Y-53204142D02*
X58166628Y-53585094D01*
X57642819Y-52680332D02*
X57642819Y-52013666D01*
X57642819Y-52013666D02*
X58642819Y-52442237D01*
X93876019Y-47817066D02*
X93399828Y-48150399D01*
X93876019Y-48388494D02*
X92876019Y-48388494D01*
X92876019Y-48388494D02*
X92876019Y-48007542D01*
X92876019Y-48007542D02*
X92923638Y-47912304D01*
X92923638Y-47912304D02*
X92971257Y-47864685D01*
X92971257Y-47864685D02*
X93066495Y-47817066D01*
X93066495Y-47817066D02*
X93209352Y-47817066D01*
X93209352Y-47817066D02*
X93304590Y-47864685D01*
X93304590Y-47864685D02*
X93352209Y-47912304D01*
X93352209Y-47912304D02*
X93399828Y-48007542D01*
X93399828Y-48007542D02*
X93399828Y-48388494D01*
X92971257Y-47436113D02*
X92923638Y-47388494D01*
X92923638Y-47388494D02*
X92876019Y-47293256D01*
X92876019Y-47293256D02*
X92876019Y-47055161D01*
X92876019Y-47055161D02*
X92923638Y-46959923D01*
X92923638Y-46959923D02*
X92971257Y-46912304D01*
X92971257Y-46912304D02*
X93066495Y-46864685D01*
X93066495Y-46864685D02*
X93161733Y-46864685D01*
X93161733Y-46864685D02*
X93304590Y-46912304D01*
X93304590Y-46912304D02*
X93876019Y-47483732D01*
X93876019Y-47483732D02*
X93876019Y-46864685D01*
X54252019Y-85155066D02*
X53775828Y-85488399D01*
X54252019Y-85726494D02*
X53252019Y-85726494D01*
X53252019Y-85726494D02*
X53252019Y-85345542D01*
X53252019Y-85345542D02*
X53299638Y-85250304D01*
X53299638Y-85250304D02*
X53347257Y-85202685D01*
X53347257Y-85202685D02*
X53442495Y-85155066D01*
X53442495Y-85155066D02*
X53585352Y-85155066D01*
X53585352Y-85155066D02*
X53680590Y-85202685D01*
X53680590Y-85202685D02*
X53728209Y-85250304D01*
X53728209Y-85250304D02*
X53775828Y-85345542D01*
X53775828Y-85345542D02*
X53775828Y-85726494D01*
X54252019Y-84202685D02*
X54252019Y-84774113D01*
X54252019Y-84488399D02*
X53252019Y-84488399D01*
X53252019Y-84488399D02*
X53394876Y-84583637D01*
X53394876Y-84583637D02*
X53490114Y-84678875D01*
X53490114Y-84678875D02*
X53537733Y-84774113D01*
X89100819Y-84431094D02*
X88100819Y-84431094D01*
X88100819Y-84431094D02*
X88100819Y-84192999D01*
X88100819Y-84192999D02*
X88148438Y-84050142D01*
X88148438Y-84050142D02*
X88243676Y-83954904D01*
X88243676Y-83954904D02*
X88338914Y-83907285D01*
X88338914Y-83907285D02*
X88529390Y-83859666D01*
X88529390Y-83859666D02*
X88672247Y-83859666D01*
X88672247Y-83859666D02*
X88862723Y-83907285D01*
X88862723Y-83907285D02*
X88957961Y-83954904D01*
X88957961Y-83954904D02*
X89053200Y-84050142D01*
X89053200Y-84050142D02*
X89100819Y-84192999D01*
X89100819Y-84192999D02*
X89100819Y-84431094D01*
X88434152Y-83002523D02*
X89100819Y-83002523D01*
X88053200Y-83240618D02*
X88767485Y-83478713D01*
X88767485Y-83478713D02*
X88767485Y-82859666D01*
X89005580Y-81700666D02*
X89053200Y-81748285D01*
X89053200Y-81748285D02*
X89100819Y-81891142D01*
X89100819Y-81891142D02*
X89100819Y-81986380D01*
X89100819Y-81986380D02*
X89053200Y-82129237D01*
X89053200Y-82129237D02*
X88957961Y-82224475D01*
X88957961Y-82224475D02*
X88862723Y-82272094D01*
X88862723Y-82272094D02*
X88672247Y-82319713D01*
X88672247Y-82319713D02*
X88529390Y-82319713D01*
X88529390Y-82319713D02*
X88338914Y-82272094D01*
X88338914Y-82272094D02*
X88243676Y-82224475D01*
X88243676Y-82224475D02*
X88148438Y-82129237D01*
X88148438Y-82129237D02*
X88100819Y-81986380D01*
X88100819Y-81986380D02*
X88100819Y-81891142D01*
X88100819Y-81891142D02*
X88148438Y-81748285D01*
X88148438Y-81748285D02*
X88196057Y-81700666D01*
X88196057Y-81319713D02*
X88148438Y-81272094D01*
X88148438Y-81272094D02*
X88100819Y-81176856D01*
X88100819Y-81176856D02*
X88100819Y-80938761D01*
X88100819Y-80938761D02*
X88148438Y-80843523D01*
X88148438Y-80843523D02*
X88196057Y-80795904D01*
X88196057Y-80795904D02*
X88291295Y-80748285D01*
X88291295Y-80748285D02*
X88386533Y-80748285D01*
X88386533Y-80748285D02*
X88529390Y-80795904D01*
X88529390Y-80795904D02*
X89100819Y-81367332D01*
X89100819Y-81367332D02*
X89100819Y-80748285D01*
X89227819Y-86272666D02*
X88751628Y-86605999D01*
X89227819Y-86844094D02*
X88227819Y-86844094D01*
X88227819Y-86844094D02*
X88227819Y-86463142D01*
X88227819Y-86463142D02*
X88275438Y-86367904D01*
X88275438Y-86367904D02*
X88323057Y-86320285D01*
X88323057Y-86320285D02*
X88418295Y-86272666D01*
X88418295Y-86272666D02*
X88561152Y-86272666D01*
X88561152Y-86272666D02*
X88656390Y-86320285D01*
X88656390Y-86320285D02*
X88704009Y-86367904D01*
X88704009Y-86367904D02*
X88751628Y-86463142D01*
X88751628Y-86463142D02*
X88751628Y-86844094D01*
X88561152Y-85415523D02*
X89227819Y-85415523D01*
X88180200Y-85653618D02*
X88894485Y-85891713D01*
X88894485Y-85891713D02*
X88894485Y-85272666D01*
D12*
%TO.C,C1*%
X89485800Y-72687548D02*
X89485800Y-73210052D01*
X90955800Y-72687548D02*
X90955800Y-73210052D01*
%TO.C,D3*%
X54093400Y-43032800D02*
X54093400Y-44952800D01*
X54093400Y-44952800D02*
X56778400Y-44952800D01*
X56778400Y-43032800D02*
X54093400Y-43032800D01*
%TO.C,D1*%
X54375100Y-81437600D02*
X54375100Y-83357600D01*
X54375100Y-83357600D02*
X57060100Y-83357600D01*
X57060100Y-81437600D02*
X54375100Y-81437600D01*
%TO.C,J4*%
X95190000Y-55940000D02*
X95190000Y-45660000D01*
X97790000Y-53340000D02*
X97790000Y-55940000D01*
X97790000Y-55940000D02*
X95190000Y-55940000D01*
X100390000Y-45660000D02*
X95190000Y-45660000D01*
X100390000Y-53340000D02*
X97790000Y-53340000D01*
X100390000Y-53340000D02*
X100390000Y-45660000D01*
X100390000Y-54610000D02*
X100390000Y-55940000D01*
X100390000Y-55940000D02*
X99060000Y-55940000D01*
D13*
%TO.C,ESP32*%
X59710000Y-38280000D02*
X87610000Y-38280000D01*
X59710000Y-92680000D02*
X59710000Y-38280000D01*
X87610000Y-38280000D02*
X87610000Y-92680000D01*
X87610000Y-92680000D02*
X59710000Y-92680000D01*
D14*
X58260000Y-45580000D02*
G75*
G02*
X58060000Y-45580000I-100000J0D01*
G01*
X58060000Y-45580000D02*
G75*
G02*
X58260000Y-45580000I100000J0D01*
G01*
D12*
%TO.C,R3*%
X55439542Y-46010300D02*
X55914058Y-46010300D01*
X55439542Y-47055300D02*
X55914058Y-47055300D01*
%TO.C,J1*%
X46930000Y-45660000D02*
X48260000Y-45660000D01*
X46930000Y-46990000D02*
X46930000Y-45660000D01*
X46930000Y-48260000D02*
X46930000Y-55940000D01*
X46930000Y-48260000D02*
X49530000Y-48260000D01*
X46930000Y-55940000D02*
X52130000Y-55940000D01*
X49530000Y-45660000D02*
X52130000Y-45660000D01*
X49530000Y-48260000D02*
X49530000Y-45660000D01*
X52130000Y-45660000D02*
X52130000Y-55940000D01*
%TO.C,D2*%
X89982800Y-51150400D02*
X92667800Y-51150400D01*
X92667800Y-49230400D02*
X89982800Y-49230400D01*
X92667800Y-51150400D02*
X92667800Y-49230400D01*
%TO.C,C3*%
X55856200Y-58224052D02*
X55856200Y-57701548D01*
X57326200Y-58224052D02*
X57326200Y-57701548D01*
%TO.C,J2*%
X46925000Y-74880000D02*
X48255000Y-74880000D01*
X46925000Y-76210000D02*
X46925000Y-74880000D01*
X46925000Y-77480000D02*
X46925000Y-85160000D01*
X46925000Y-77480000D02*
X49525000Y-77480000D01*
X46925000Y-85160000D02*
X52125000Y-85160000D01*
X49525000Y-74880000D02*
X52125000Y-74880000D01*
X49525000Y-77480000D02*
X49525000Y-74880000D01*
X52125000Y-74880000D02*
X52125000Y-85160000D01*
%TO.C,U2*%
X52135000Y-60345000D02*
X50185000Y-60345000D01*
X52135000Y-60345000D02*
X54085000Y-60345000D01*
X52135000Y-70465000D02*
X50185000Y-70465000D01*
X52135000Y-70465000D02*
X54085000Y-70465000D01*
X49435000Y-60400000D02*
X49195000Y-60070000D01*
X49675000Y-60070000D01*
X49435000Y-60400000D01*
G36*
X49435000Y-60400000D02*
G01*
X49195000Y-60070000D01*
X49675000Y-60070000D01*
X49435000Y-60400000D01*
G37*
%TO.C,U3*%
X95315000Y-60345000D02*
X93365000Y-60345000D01*
X95315000Y-60345000D02*
X97265000Y-60345000D01*
X95315000Y-70465000D02*
X93365000Y-70465000D01*
X95315000Y-70465000D02*
X97265000Y-70465000D01*
X98255000Y-70740000D02*
X97775000Y-70740000D01*
X98015000Y-70410000D01*
X98255000Y-70740000D01*
G36*
X98255000Y-70740000D02*
G01*
X97775000Y-70740000D01*
X98015000Y-70410000D01*
X98255000Y-70740000D01*
G37*
%TO.C,R5*%
X89373200Y-77600800D02*
X89373200Y-76200800D01*
X90073200Y-75500800D02*
X90673200Y-75500800D01*
X90673200Y-78300800D02*
X90073200Y-78300800D01*
X91373200Y-76200800D02*
X91373200Y-77600800D01*
X89373200Y-76200800D02*
G75*
G02*
X90073200Y-75500800I700000J0D01*
G01*
X90073200Y-78300800D02*
G75*
G02*
X89373200Y-77600800I-1J699999D01*
G01*
X90673200Y-75500800D02*
G75*
G02*
X91373200Y-76200800I0J-700000D01*
G01*
X91373200Y-77600800D02*
G75*
G02*
X90673200Y-78300800I-699999J-1D01*
G01*
%TO.C,J5*%
X53539000Y-89805200D02*
X53539000Y-92465200D01*
X56139000Y-89805200D02*
X53539000Y-89805200D01*
X56139000Y-89805200D02*
X56139000Y-92465200D01*
X56139000Y-92465200D02*
X53539000Y-92465200D01*
X57409000Y-89805200D02*
X58739000Y-89805200D01*
X58739000Y-89805200D02*
X58739000Y-91135200D01*
%TO.C,J3*%
X95190000Y-85150000D02*
X95190000Y-74870000D01*
X97790000Y-82550000D02*
X97790000Y-85150000D01*
X97790000Y-85150000D02*
X95190000Y-85150000D01*
X100390000Y-74870000D02*
X95190000Y-74870000D01*
X100390000Y-82550000D02*
X97790000Y-82550000D01*
X100390000Y-82550000D02*
X100390000Y-74870000D01*
X100390000Y-83820000D02*
X100390000Y-85150000D01*
X100390000Y-85150000D02*
X99060000Y-85150000D01*
%TO.C,R7*%
X55388000Y-53547000D02*
X55388000Y-52147000D01*
X56088000Y-51447000D02*
X56688000Y-51447000D01*
X56688000Y-54247000D02*
X56088000Y-54247000D01*
X57388000Y-52147000D02*
X57388000Y-53547000D01*
X55388000Y-52147000D02*
G75*
G02*
X56088000Y-51447000I699999J1D01*
G01*
X56088000Y-54247000D02*
G75*
G02*
X55388000Y-53547000I0J700000D01*
G01*
X56688000Y-51447000D02*
G75*
G02*
X57388000Y-52147000I1J-699999D01*
G01*
X57388000Y-53547000D02*
G75*
G02*
X56688000Y-54247000I-700000J0D01*
G01*
%TO.C,R2*%
X91270858Y-47178700D02*
X90796342Y-47178700D01*
X91270858Y-48223700D02*
X90796342Y-48223700D01*
%TO.C,R1*%
X55756542Y-84516700D02*
X56231058Y-84516700D01*
X55756542Y-85561700D02*
X56231058Y-85561700D01*
%TO.C,D4*%
X90021400Y-84678400D02*
X92706400Y-84678400D01*
X92706400Y-82758400D02*
X90021400Y-82758400D01*
X92706400Y-84678400D02*
X92706400Y-82758400D01*
%TO.C,C2*%
X90736748Y-80672000D02*
X91259252Y-80672000D01*
X90736748Y-82142000D02*
X91259252Y-82142000D01*
%TO.C,R4*%
X90796342Y-85634300D02*
X91270858Y-85634300D01*
X90796342Y-86679300D02*
X91270858Y-86679300D01*
%TD*%
M02*
