%TF.GenerationSoftware,KiCad,Pcbnew,9.0.0*%
%TF.CreationDate,2025-02-22T16:31:38-08:00*%
%TF.ProjectId,TouchDRO,546f7563-6844-4524-9f2e-6b696361645f,0.1*%
%TF.SameCoordinates,Original*%
%TF.FileFunction,Paste,Top*%
%TF.FilePolarity,Positive*%
%FSLAX46Y46*%
G04 Gerber Fmt 4.6, Leading zero omitted, Abs format (unit mm)*
G04 Created by KiCad (PCBNEW 9.0.0) date 2025-02-22 16:31:38*
%MOMM*%
%LPD*%
G01*
G04 APERTURE LIST*
G04 Aperture macros list*
%AMRoundRect*
0 Rectangle with rounded corners*
0 $1 Rounding radius*
0 $2 $3 $4 $5 $6 $7 $8 $9 X,Y pos of 4 corners*
0 Add a 4 corners polygon primitive as box body*
4,1,4,$2,$3,$4,$5,$6,$7,$8,$9,$2,$3,0*
0 Add four circle primitives for the rounded corners*
1,1,$1+$1,$2,$3*
1,1,$1+$1,$4,$5*
1,1,$1+$1,$6,$7*
1,1,$1+$1,$8,$9*
0 Add four rect primitives between the rounded corners*
20,1,$1+$1,$2,$3,$4,$5,0*
20,1,$1+$1,$4,$5,$6,$7,0*
20,1,$1+$1,$6,$7,$8,$9,0*
20,1,$1+$1,$8,$9,$2,$3,0*%
G04 Aperture macros list end*
%ADD10RoundRect,0.250000X-0.475000X0.250000X-0.475000X-0.250000X0.475000X-0.250000X0.475000X0.250000X0*%
%ADD11RoundRect,0.243750X-0.243750X-0.456250X0.243750X-0.456250X0.243750X0.456250X-0.243750X0.456250X0*%
%ADD12RoundRect,0.200000X-0.200000X-0.275000X0.200000X-0.275000X0.200000X0.275000X-0.200000X0.275000X0*%
%ADD13RoundRect,0.243750X0.243750X0.456250X-0.243750X0.456250X-0.243750X-0.456250X0.243750X-0.456250X0*%
%ADD14RoundRect,0.250000X0.475000X-0.250000X0.475000X0.250000X-0.475000X0.250000X-0.475000X-0.250000X0*%
%ADD15RoundRect,0.150000X-0.825000X-0.150000X0.825000X-0.150000X0.825000X0.150000X-0.825000X0.150000X0*%
%ADD16RoundRect,0.150000X0.825000X0.150000X-0.825000X0.150000X-0.825000X-0.150000X0.825000X-0.150000X0*%
%ADD17RoundRect,0.200000X0.200000X0.275000X-0.200000X0.275000X-0.200000X-0.275000X0.200000X-0.275000X0*%
%ADD18RoundRect,0.250000X-0.250000X-0.475000X0.250000X-0.475000X0.250000X0.475000X-0.250000X0.475000X0*%
G04 APERTURE END LIST*
D10*
%TO.C,C1*%
X90220800Y-71998800D03*
X90220800Y-73898800D03*
%TD*%
D11*
%TO.C,D3*%
X54840900Y-43992800D03*
X56715900Y-43992800D03*
%TD*%
%TO.C,D1*%
X55122600Y-82397600D03*
X56997600Y-82397600D03*
%TD*%
D12*
%TO.C,R3*%
X54851800Y-46532800D03*
X56501800Y-46532800D03*
%TD*%
D13*
%TO.C,D2*%
X91920300Y-50190400D03*
X90045300Y-50190400D03*
%TD*%
D14*
%TO.C,C3*%
X56591200Y-58912800D03*
X56591200Y-57012800D03*
%TD*%
D15*
%TO.C,U2*%
X49660000Y-60960000D03*
X49660000Y-62230000D03*
X49660000Y-63500000D03*
X49660000Y-64770000D03*
X49660000Y-66040000D03*
X49660000Y-67310000D03*
X49660000Y-68580000D03*
X49660000Y-69850000D03*
X54610000Y-69850000D03*
X54610000Y-68580000D03*
X54610000Y-67310000D03*
X54610000Y-66040000D03*
X54610000Y-64770000D03*
X54610000Y-63500000D03*
X54610000Y-62230000D03*
X54610000Y-60960000D03*
%TD*%
D16*
%TO.C,U3*%
X97790000Y-69850000D03*
X97790000Y-68580000D03*
X97790000Y-67310000D03*
X97790000Y-66040000D03*
X97790000Y-64770000D03*
X97790000Y-63500000D03*
X97790000Y-62230000D03*
X97790000Y-60960000D03*
X92840000Y-60960000D03*
X92840000Y-62230000D03*
X92840000Y-63500000D03*
X92840000Y-64770000D03*
X92840000Y-66040000D03*
X92840000Y-67310000D03*
X92840000Y-68580000D03*
X92840000Y-69850000D03*
%TD*%
D17*
%TO.C,R2*%
X91858600Y-47701200D03*
X90208600Y-47701200D03*
%TD*%
D12*
%TO.C,R1*%
X55168800Y-85039200D03*
X56818800Y-85039200D03*
%TD*%
D13*
%TO.C,D4*%
X91958900Y-83718400D03*
X90083900Y-83718400D03*
%TD*%
D18*
%TO.C,C2*%
X90048000Y-81407000D03*
X91948000Y-81407000D03*
%TD*%
D12*
%TO.C,R4*%
X90208600Y-86156800D03*
X91858600Y-86156800D03*
%TD*%
M02*
